v 10 0 0
v 130 0 0
v 140 10 0
v 140 70 0
v 130 80 0
v 10 80 0
v 0 70 0
v 0 10 0
v 10 0 8
v 130 0 8
v 140 10 8
v 140 70 8
v 130 80 8
v 10 80 8
v 0 70 8
v 0 10 8
v 8 12 0
v 8 12 8
v 124 12 0
v 124 12 8
v 8 68 0
v 8 68 8
v 124 68 0
v 124 68 8
v 50 40 8
v 50 40 20
v 60 40 0
v 60 40 20
v 132.08535180780717 0.21985133867202328 0
v 134.20520110129914 0.9271678237921402 0
v 136.187804272274 2.1443600968458676 0
v 137.85563990315416 3.8121957277259866 0
v 139.07283217620787 5.794798898700877 0
v 139.78014866132798 7.914648192192841 0
v 139.78014866132796 72.08535180780716 0
v 139.07283217620787 74.20520110129911 0
v 137.85563990315413 76.18780427227401 0
v 136.18780427227404 77.85563990315414 0
v 134.2052011012991 79.07283217620785 0
v 132.08535180780717 79.78014866132798 0
v 7.914648192192841 79.78014866132797 0
v 5.794798898700877 79.07283217620785 0
v 3.8121957277259866 77.85563990315413 0
v 2.144360096845868 76.18780427227402 0
v 0.9271678237921402 74.20520110129911 0
v 0.2198513386720235 72.08535180780716 0
v 0.21985133867202328 7.914648192192841 0
v 0.9271678237921402 5.794798898700877 0
v 2.1443600968458676 3.8121957277259866 0
v 3.8121957277259866 2.144360096845868 0
v 5.794798898700877 0.9271678237921402 0
v 7.914648192192841 0.2198513386720235 0
v 132.08535180780717 0.21985133867202328 8
v 134.20520110129914 0.9271678237921402 8
v 136.187804272274 2.1443600968458676 8
v 137.85563990315416 3.8121957277259866 8
v 139.07283217620787 5.794798898700877 8
v 139.78014866132798 7.914648192192841 8
v 139.78014866132796 72.08535180780716 8
v 139.07283217620787 74.20520110129911 8
v 137.85563990315413 76.18780427227401 8
v 136.18780427227404 77.85563990315414 8
v 134.2052011012991 79.07283217620785 8
v 132.08535180780717 79.78014866132798 8
v 7.914648192192841 79.78014866132797 8
v 5.794798898700877 79.07283217620785 8
v 3.8121957277259866 77.85563990315413 8
v 2.144360096845868 76.18780427227402 8
v 0.9271678237921402 74.20520110129911 8
v 0.2198513386720235 72.08535180780716 8
v 0.21985133867202328 7.914648192192841 8
v 0.9271678237921402 5.794798898700877 8
v 2.1443600968458676 3.8121957277259866 8
v 3.8121957277259866 2.144360096845868 8
v 5.794798898700877 0.9271678237921402 8
v 7.914648192192841 0.2198513386720235 8
v 8.033229455266877 11.485479402319319 0
v 8.140966403007283 10.947450857545618 0
v 8.33523598615917 10.397032525951557 0
v 8.6272 9.8496 0
v 9.025828648622026 9.325246782852197 0
v 9.536169675546017 8.848882716828683 0
v 10.157278834893324 8.449735403146985 0
v 10.879999999999999 8.16 0
v 11.684944907282988 8.012426766998118 0
v 12.541189716644773 8.03677988365547 0
v 13.40631450969466 8.255366573371663 0
v 14.228373702422145 8.678200692041523 0
v 14.950117479530082 9.29873976504094 0
v 15.515266272189349 10.091360946745562 0
v 15.875970870111583 11.011642871201683 0
v 16 12 0
v 15.875970870111583 12.988357128798317 0
v 15.515266272189349 13.908639053254438 0
v 14.950117479530082 14.70126023495906 0
v 14.228373702422145 15.321799307958477 0
v 13.40631450969466 15.744633426628337 0
v 12.541189716644773 15.96322011634453 0
v 11.684944907282988 15.987573233001882 0
v 10.879999999999999 15.84 0
v 10.157278834893324 15.550264596853015 0
v 9.536169675546017 15.151117283171317 0
v 9.025828648622026 14.674753217147803 0
v 8.6272 14.1504 0
v 8.33523598615917 13.602967474048443 0
v 8.140966403007283 13.052549142454382 0
v 8.033229455266877 12.514520597680681 0
v 8.033229455266877 11.485479402319319 8
v 8.140966403007283 10.947450857545618 8
v 8.33523598615917 10.397032525951557 8
v 8.6272 9.8496 8
v 9.025828648622026 9.325246782852197 8
v 9.536169675546017 8.848882716828683 8
v 10.157278834893324 8.449735403146985 8
v 10.879999999999999 8.16 8
v 11.684944907282988 8.012426766998118 8
v 12.541189716644773 8.03677988365547 8
v 13.40631450969466 8.255366573371663 8
v 14.228373702422145 8.678200692041523 8
v 14.950117479530082 9.29873976504094 8
v 15.515266272189349 10.091360946745562 8
v 15.875970870111583 11.011642871201683 8
v 16 12 8
v 15.875970870111583 12.988357128798317 8
v 15.515266272189349 13.908639053254438 8
v 14.950117479530082 14.70126023495906 8
v 14.228373702422145 15.321799307958477 8
v 13.40631450969466 15.744633426628337 8
v 12.541189716644773 15.96322011634453 8
v 11.684944907282988 15.987573233001882 8
v 10.879999999999999 15.84 8
v 10.157278834893324 15.550264596853015 8
v 9.536169675546017 15.151117283171317 8
v 9.025828648622026 14.674753217147803 8
v 8.6272 14.1504 8
v 8.33523598615917 13.602967474048443 8
v 8.140966403007283 13.052549142454382 8
v 8.033229455266877 12.514520597680681 8
v 124.03322945526688 11.485479402319319 0
v 124.14096640300728 10.947450857545618 0
v 124.33523598615918 10.397032525951557 0
v 124.6272 9.8496 0
v 125.02582864862202 9.325246782852197 0
v 125.53616967554602 8.848882716828683 0
v 126.15727883489332 8.449735403146985 0
v 126.88 8.16 0
v 127.68494490728298 8.012426766998118 0
v 128.54118971664477 8.03677988365547 0
v 129.40631450969465 8.255366573371663 0
v 130.22837370242215 8.678200692041523 0
v 130.9501174795301 9.29873976504094 0
v 131.51526627218934 10.091360946745562 0
v 131.8759708701116 11.011642871201683 0
v 132 12 0
v 131.8759708701116 12.988357128798317 0
v 131.51526627218934 13.908639053254438 0
v 130.9501174795301 14.70126023495906 0
v 130.22837370242215 15.321799307958477 0
v 129.40631450969465 15.744633426628337 0
v 128.54118971664477 15.96322011634453 0
v 127.68494490728298 15.987573233001882 0
v 126.88 15.84 0
v 126.15727883489332 15.550264596853015 0
v 125.53616967554602 15.151117283171317 0
v 125.02582864862202 14.674753217147803 0
v 124.6272 14.1504 0
v 124.33523598615918 13.602967474048443 0
v 124.14096640300728 13.052549142454382 0
v 124.03322945526688 12.514520597680681 0
v 124.03322945526688 11.485479402319319 8
v 124.14096640300728 10.947450857545618 8
v 124.33523598615918 10.397032525951557 8
v 124.6272 9.8496 8
v 125.02582864862202 9.325246782852197 8
v 125.53616967554602 8.848882716828683 8
v 126.15727883489332 8.449735403146985 8
v 126.88 8.16 8
v 127.68494490728298 8.012426766998118 8
v 128.54118971664477 8.03677988365547 8
v 129.40631450969465 8.255366573371663 8
v 130.22837370242215 8.678200692041523 8
v 130.9501174795301 9.29873976504094 8
v 131.51526627218934 10.091360946745562 8
v 131.8759708701116 11.011642871201683 8
v 132 12 8
v 131.8759708701116 12.988357128798317 8
v 131.51526627218934 13.908639053254438 8
v 130.9501174795301 14.70126023495906 8
v 130.22837370242215 15.321799307958477 8
v 129.40631450969465 15.744633426628337 8
v 128.54118971664477 15.96322011634453 8
v 127.68494490728298 15.987573233001882 8
v 126.88 15.84 8
v 126.15727883489332 15.550264596853015 8
v 125.53616967554602 15.151117283171317 8
v 125.02582864862202 14.674753217147803 8
v 124.6272 14.1504 8
v 124.33523598615918 13.602967474048443 8
v 124.14096640300728 13.052549142454382 8
v 124.03322945526688 12.514520597680681 8
v 8.033229455266877 67.48547940231931 0
v 8.140966403007283 66.94745085754562 0
v 8.33523598615917 66.39703252595156 0
v 8.6272 65.8496 0
v 9.025828648622026 65.3252467828522 0
v 9.536169675546017 64.84888271682868 0
v 10.157278834893324 64.44973540314699 0
v 10.879999999999999 64.16 0
v 11.684944907282988 64.01242676699812 0
v 12.541189716644773 64.03677988365547 0
v 13.40631450969466 64.25536657337166 0
v 14.228373702422145 64.67820069204153 0
v 14.950117479530082 65.29873976504093 0
v 15.515266272189349 66.09136094674557 0
v 15.875970870111583 67.01164287120169 0
v 16 68 0
v 15.875970870111583 68.98835712879831 0
v 15.515266272189349 69.90863905325443 0
v 14.950117479530082 70.70126023495907 0
v 14.228373702422145 71.32179930795847 0
v 13.40631450969466 71.74463342662834 0
v 12.541189716644773 71.96322011634453 0
v 11.684944907282988 71.98757323300188 0
v 10.879999999999999 71.84 0
v 10.157278834893324 71.55026459685301 0
v 9.536169675546017 71.15111728317132 0
v 9.025828648622026 70.6747532171478 0
v 8.6272 70.1504 0
v 8.33523598615917 69.60296747404844 0
v 8.140966403007283 69.05254914245438 0
v 8.033229455266877 68.51452059768069 0
v 8.033229455266877 67.48547940231931 8
v 8.140966403007283 66.94745085754562 8
v 8.33523598615917 66.39703252595156 8
v 8.6272 65.8496 8
v 9.025828648622026 65.3252467828522 8
v 9.536169675546017 64.84888271682868 8
v 10.157278834893324 64.44973540314699 8
v 10.879999999999999 64.16 8
v 11.684944907282988 64.01242676699812 8
v 12.541189716644773 64.03677988365547 8
v 13.40631450969466 64.25536657337166 8
v 14.228373702422145 64.67820069204153 8
v 14.950117479530082 65.29873976504093 8
v 15.515266272189349 66.09136094674557 8
v 15.875970870111583 67.01164287120169 8
v 16 68 8
v 15.875970870111583 68.98835712879831 8
v 15.515266272189349 69.90863905325443 8
v 14.950117479530082 70.70126023495907 8
v 14.228373702422145 71.32179930795847 8
v 13.40631450969466 71.74463342662834 8
v 12.541189716644773 71.96322011634453 8
v 11.684944907282988 71.98757323300188 8
v 10.879999999999999 71.84 8
v 10.157278834893324 71.55026459685301 8
v 9.536169675546017 71.15111728317132 8
v 9.025828648622026 70.6747532171478 8
v 8.6272 70.1504 8
v 8.33523598615917 69.60296747404844 8
v 8.140966403007283 69.05254914245438 8
v 8.033229455266877 68.51452059768069 8
v 124.03322945526688 67.48547940231931 0
v 124.14096640300728 66.94745085754562 0
v 124.33523598615918 66.39703252595156 0
v 124.6272 65.8496 0
v 125.02582864862202 65.3252467828522 0
v 125.53616967554602 64.84888271682868 0
v 126.15727883489332 64.44973540314699 0
v 126.88 64.16 0
v 127.68494490728298 64.01242676699812 0
v 128.54118971664477 64.03677988365547 0
v 129.40631450969465 64.25536657337166 0
v 130.22837370242215 64.67820069204153 0
v 130.9501174795301 65.29873976504093 0
v 131.51526627218934 66.09136094674557 0
v 131.8759708701116 67.01164287120169 0
v 132 68 0
v 131.8759708701116 68.98835712879831 0
v 131.51526627218934 69.90863905325443 0
v 130.9501174795301 70.70126023495907 0
v 130.22837370242215 71.32179930795847 0
v 129.40631450969465 71.74463342662834 0
v 128.54118971664477 71.96322011634453 0
v 127.68494490728298 71.98757323300188 0
v 126.88 71.84 0
v 126.15727883489332 71.55026459685301 0
v 125.53616967554602 71.15111728317132 0
v 125.02582864862202 70.6747532171478 0
v 124.6272 70.1504 0
v 124.33523598615918 69.60296747404844 0
v 124.14096640300728 69.05254914245438 0
v 124.03322945526688 68.51452059768069 0
v 124.03322945526688 67.48547940231931 8
v 124.14096640300728 66.94745085754562 8
v 124.33523598615918 66.39703252595156 8
v 124.6272 65.8496 8
v 125.02582864862202 65.3252467828522 8
v 125.53616967554602 64.84888271682868 8
v 126.15727883489332 64.44973540314699 8
v 126.88 64.16 8
v 127.68494490728298 64.01242676699812 8
v 128.54118971664477 64.03677988365547 8
v 129.40631450969465 64.25536657337166 8
v 130.22837370242215 64.67820069204153 8
v 130.9501174795301 65.29873976504093 8
v 131.51526627218934 66.09136094674557 8
v 131.8759708701116 67.01164287120169 8
v 132 68 8
v 131.8759708701116 68.98835712879831 8
v 131.51526627218934 69.90863905325443 8
v 130.9501174795301 70.70126023495907 8
v 130.22837370242215 71.32179930795847 8
v 129.40631450969465 71.74463342662834 8
v 128.54118971664477 71.96322011634453 8
v 127.68494490728298 71.98757323300188 8
v 126.88 71.84 8
v 126.15727883489332 71.55026459685301 8
v 125.53616967554602 71.15111728317132 8
v 125.02582864862202 70.6747532171478 8
v 124.6272 70.1504 8
v 124.33523598615918 69.60296747404844 8
v 124.14096640300728 69.05254914245438 8
v 124.03322945526688 68.51452059768069 8
v 50.166147276334385 37.4273970115966 8
v 50.704832015036416 34.73725428772809 8
v 51.67617993079585 31.985162629757784 8
v 53.136 29.248 8
v 55.129143243110136 26.626233914260986 8
v 57.680848377730086 24.244413584143416 8
v 60.78639417446662 22.248677015734927 8
v 64.4 20.8 8
v 68.42472453641494 20.062133834990593 8
v 72.70594858322387 20.183899418277353 8
v 77.03157254847329 21.27683286685832 8
v 81.14186851211073 23.391003460207614 8
v 84.7505873976504 26.4936988252047 8
v 87.57633136094674 30.45680473372781 8
v 89.37985435055792 35.05821435600842 8
v 90 40 8
v 89.37985435055792 44.94178564399158 8
v 87.57633136094674 49.54319526627219 8
v 84.7505873976504 53.5063011747953 8
v 81.14186851211073 56.608996539792386 8
v 77.03157254847329 58.72316713314168 8
v 72.70594858322387 59.81610058172265 8
v 68.42472453641494 59.93786616500941 8
v 64.4 59.2 8
v 60.78639417446662 57.75132298426507 8
v 57.680848377730086 55.755586415856584 8
v 55.129143243110136 53.373766085739014 8
v 53.136 50.751999999999995 8
v 51.67617993079585 48.01483737024222 8
v 50.704832015036416 45.26274571227191 8
v 50.166147276334385 42.5726029884034 8
v 50.166147276334385 37.4273970115966 20
v 50.704832015036416 34.73725428772809 20
v 51.67617993079585 31.985162629757784 20
v 53.136 29.248 20
v 55.129143243110136 26.626233914260986 20
v 57.680848377730086 24.244413584143416 20
v 60.78639417446662 22.248677015734927 20
v 64.4 20.8 20
v 68.42472453641494 20.062133834990593 20
v 72.70594858322387 20.183899418277353 20
v 77.03157254847329 21.27683286685832 20
v 81.14186851211073 23.391003460207614 20
v 84.7505873976504 26.4936988252047 20
v 87.57633136094674 30.45680473372781 20
v 89.37985435055792 35.05821435600842 20
v 90 40 20
v 89.37985435055792 44.94178564399158 20
v 87.57633136094674 49.54319526627219 20
v 84.7505873976504 53.5063011747953 20
v 81.14186851211073 56.608996539792386 20
v 77.03157254847329 58.72316713314168 20
v 72.70594858322387 59.81610058172265 20
v 68.42472453641494 59.93786616500941 20
v 64.4 59.2 20
v 60.78639417446662 57.75132298426507 20
v 57.680848377730086 55.755586415856584 20
v 55.129143243110136 53.373766085739014 20
v 53.136 50.751999999999995 20
v 51.67617993079585 48.01483737024222 20
v 50.704832015036416 45.26274571227191 20
v 50.166147276334385 42.5726029884034 20
v 60.08307363816719 38.7136985057983 0
v 60.35241600751821 37.368627143864046 0
v 60.83808996539793 35.99258131487889 0
v 61.568 34.624 0
v 62.56457162155507 33.3131169571305 0
v 63.84042418886504 32.12220679207171 0
v 65.39319708723332 31.124338507867463 0
v 67.2 30.4 0
v 69.21236226820747 30.031066917495295 0
v 71.35297429161193 30.091949709138675 0
v 73.51578627423665 30.63841643342916 0
v 75.57093425605537 31.695501730103807 0
v 77.3752936988252 33.24684941260235 0
v 78.78816568047337 35.228402366863904 0
v 79.68992717527897 37.52910717800421 0
v 80 40 0
v 79.68992717527897 42.47089282199579 0
v 78.78816568047337 44.771597633136096 0
v 77.3752936988252 46.75315058739765 0
v 75.57093425605537 48.30449826989619 0
v 73.51578627423665 49.36158356657084 0
v 71.35297429161193 49.908050290861325 0
v 69.21236226820747 49.968933082504705 0
v 67.2 49.6 0
v 65.39319708723332 48.87566149213254 0
v 63.84042418886504 47.87779320792829 0
v 62.56457162155507 46.6868830428695 0
v 61.568 45.376 0
v 60.83808996539793 44.00741868512111 0
v 60.35241600751821 42.631372856135954 0
v 60.08307363816719 41.2863014942017 0
v 60.08307363816719 38.7136985057983 20
v 60.35241600751821 37.368627143864046 20
v 60.83808996539793 35.99258131487889 20
v 61.568 34.624 20
v 62.56457162155507 33.3131169571305 20
v 63.84042418886504 32.12220679207171 20
v 65.39319708723332 31.124338507867463 20
v 67.2 30.4 20
v 69.21236226820747 30.031066917495295 20
v 71.35297429161193 30.091949709138675 20
v 73.51578627423665 30.63841643342916 20
v 75.57093425605537 31.695501730103807 20
v 77.3752936988252 33.24684941260235 20
v 78.78816568047337 35.228402366863904 20
v 79.68992717527897 37.52910717800421 20
v 80 40 20
v 79.68992717527897 42.47089282199579 20
v 78.78816568047337 44.771597633136096 20
v 77.3752936988252 46.75315058739765 20
v 75.57093425605537 48.30449826989619 20
v 73.51578627423665 49.36158356657084 20
v 71.35297429161193 49.908050290861325 20
v 69.21236226820747 49.968933082504705 20
v 67.2 49.6 20
v 65.39319708723332 48.87566149213254 20
v 63.84042418886504 47.87779320792829 20
v 62.56457162155507 46.6868830428695 20
v 61.568 45.376 20
v 60.83808996539793 44.00741868512111 20
v 60.35241600751821 42.631372856135954 20
v 60.08307363816719 41.2863014942017 20
f 353 352 247
f 352 351 247
f 351 350 247
f 350 349 247
f 349 348 247
f 348 347 247
f 347 297 247
f 347 346 297
f 346 345 297
f 345 344 297
f 344 343 297
f 343 342 297
f 342 341 297
f 341 340 297
f 297 248 247
f 297 249 248
f 297 250 249
f 297 251 250
f 297 252 251
f 297 253 252
f 297 69 253
f 69 254 253
f 69 255 254
f 69 256 255
f 69 257 256
f 69 258 257
f 69 259 258
f 69 260 259
f 69 261 260
f 69 262 261
f 69 22 262
f 69 232 22
f 69 233 232
f 69 234 233
f 69 235 234
f 69 236 235
f 69 124 236
f 124 237 236
f 124 238 237
f 124 239 238
f 124 240 239
f 124 241 240
f 124 242 241
f 124 243 242
f 124 244 243
f 124 245 244
f 124 246 245
f 124 123 246
f 123 327 246
f 327 326 246
f 326 325 246
f 325 25 246
f 25 355 246
f 355 354 246
f 354 353 246
f 353 247 246
f 69 125 124
f 69 126 125
f 69 127 126
f 69 128 127
f 69 129 128
f 69 130 129
f 69 131 130
f 69 132 131
f 69 133 132
f 69 134 133
f 69 135 134
f 69 136 135
f 69 137 136
f 69 138 137
f 69 18 138
f 69 108 18
f 69 71 108
f 71 109 108
f 71 110 109
f 71 111 110
f 71 112 111
f 71 113 112
f 71 114 113
f 71 115 114
f 71 116 115
f 71 175 116
f 175 117 116
f 175 118 117
f 175 119 118
f 175 120 119
f 175 121 120
f 175 122 121
f 175 332 122
f 332 331 122
f 331 330 122
f 330 329 122
f 329 328 122
f 328 327 122
f 327 123 122
f 69 16 71
f 69 15 16
f 69 70 15
f 297 68 69
f 297 67 68
f 297 66 67
f 297 65 66
f 297 14 65
f 297 296 14
f 296 295 14
f 295 294 14
f 294 24 14
f 24 324 14
f 324 323 14
f 323 322 14
f 322 321 14
f 321 13 14
f 321 320 13
f 320 64 13
f 320 319 64
f 319 63 64
f 319 318 63
f 318 62 63
f 318 317 62
f 317 61 62
f 317 60 61
f 317 316 60
f 316 315 60
f 315 314 60
f 314 313 60
f 313 312 60
f 312 311 60
f 311 310 60
f 310 309 60
f 309 12 60
f 12 59 60
f 175 333 332
f 175 334 333
f 175 335 334
f 175 336 335
f 175 337 336
f 175 338 337
f 175 339 338
f 175 340 339
f 175 174 340
f 174 173 340
f 173 172 340
f 172 171 340
f 171 170 340
f 170 20 340
f 20 297 340
f 20 298 297
f 20 299 298
f 20 300 299
f 20 301 300
f 20 200 301
f 200 302 301
f 200 303 302
f 200 304 303
f 200 305 304
f 200 306 305
f 200 307 306
f 200 308 307
f 200 199 308
f 199 198 308
f 198 197 308
f 197 196 308
f 196 195 308
f 195 309 308
f 195 194 309
f 194 193 309
f 193 192 309
f 192 191 309
f 191 190 309
f 190 189 309
f 189 188 309
f 188 187 309
f 187 186 309
f 186 185 309
f 185 11 309
f 11 12 309
f 71 176 175
f 71 177 176
f 71 178 177
f 71 58 178
f 58 179 178
f 58 180 179
f 58 181 180
f 58 182 181
f 58 183 182
f 58 184 183
f 58 185 184
f 58 11 185
f 71 57 58
f 71 56 57
f 71 55 56
f 71 54 55
f 71 53 54
f 71 10 53
f 71 72 10
f 72 73 10
f 73 74 10
f 74 75 10
f 75 76 10
f 76 9 10
f 415 216 414
f 414 216 413
f 413 216 412
f 412 216 411
f 411 216 410
f 410 216 266
f 410 266 409
f 409 266 408
f 408 266 407
f 407 266 406
f 406 266 405
f 405 266 404
f 404 266 403
f 403 266 402
f 266 216 217
f 266 217 218
f 266 218 219
f 266 219 220
f 266 220 221
f 266 221 222
f 266 222 45
f 45 222 223
f 45 223 224
f 45 224 225
f 45 225 226
f 45 226 227
f 45 227 228
f 45 228 229
f 45 229 230
f 45 230 231
f 45 231 21
f 45 21 201
f 45 201 202
f 45 202 203
f 45 203 204
f 45 204 205
f 45 205 93
f 93 205 206
f 93 206 207
f 93 207 208
f 93 208 209
f 93 209 210
f 93 210 211
f 93 211 212
f 93 212 213
f 93 213 214
f 93 214 215
f 93 215 92
f 92 215 389
f 389 215 388
f 388 215 387
f 387 215 27
f 27 215 417
f 417 215 416
f 416 215 415
f 415 215 216
f 45 93 94
f 45 94 95
f 45 95 96
f 45 96 97
f 45 97 98
f 45 98 99
f 45 99 100
f 45 100 101
f 45 101 102
f 45 102 103
f 45 103 104
f 45 104 105
f 45 105 106
f 45 106 107
f 45 107 17
f 45 17 77
f 45 77 47
f 47 77 78
f 47 78 79
f 47 79 80
f 47 80 81
f 47 81 82
f 47 82 83
f 47 83 84
f 47 84 85
f 47 85 144
f 144 85 86
f 144 86 87
f 144 87 88
f 144 88 89
f 144 89 90
f 144 90 91
f 144 91 394
f 394 91 393
f 393 91 392
f 392 91 391
f 391 91 390
f 390 91 389
f 389 91 92
f 45 47 8
f 45 8 7
f 45 7 46
f 266 45 44
f 266 44 43
f 266 43 42
f 266 42 41
f 266 41 6
f 266 6 265
f 265 6 264
f 264 6 263
f 263 6 23
f 23 6 293
f 293 6 292
f 292 6 291
f 291 6 290
f 290 6 5
f 290 5 289
f 289 5 40
f 289 40 288
f 288 40 39
f 288 39 287
f 287 39 38
f 287 38 286
f 286 38 37
f 286 37 36
f 286 36 285
f 285 36 284
f 284 36 283
f 283 36 282
f 282 36 281
f 281 36 280
f 280 36 279
f 279 36 278
f 278 36 4
f 4 36 35
f 144 394 395
f 144 395 396
f 144 396 397
f 144 397 398
f 144 398 399
f 144 399 400
f 144 400 401
f 144 401 402
f 144 402 143
f 143 402 142
f 142 402 141
f 141 402 140
f 140 402 139
f 139 402 19
f 19 402 266
f 19 266 267
f 19 267 268
f 19 268 269
f 19 269 270
f 19 270 169
f 169 270 271
f 169 271 272
f 169 272 273
f 169 273 274
f 169 274 275
f 169 275 276
f 169 276 277
f 169 277 168
f 168 277 167
f 167 277 166
f 166 277 165
f 165 277 164
f 164 277 278
f 164 278 163
f 163 278 162
f 162 278 161
f 161 278 160
f 160 278 159
f 159 278 158
f 158 278 157
f 157 278 156
f 156 278 155
f 155 278 154
f 154 278 3
f 3 278 4
f 47 144 145
f 47 145 146
f 47 146 147
f 47 147 34
f 34 147 148
f 34 148 149
f 34 149 150
f 34 150 151
f 34 151 152
f 34 152 153
f 34 153 154
f 34 154 3
f 47 34 33
f 47 33 32
f 47 32 31
f 47 31 30
f 47 30 29
f 47 29 48
f 48 29 49
f 49 29 50
f 50 29 51
f 51 29 52
f 52 29 1
f 1 29 2
f 433 370 434
f 370 435 434
f 370 436 435
f 370 371 436
f 371 437 436
f 371 372 437
f 372 438 437
f 372 373 438
f 373 439 438
f 373 440 439
f 373 374 440
f 374 441 440
f 374 375 441
f 375 442 441
f 375 376 442
f 376 443 442
f 376 356 443
f 356 444 443
f 356 445 444
f 356 446 445
f 356 447 446
f 356 448 447
f 356 28 448
f 356 418 28
f 356 419 418
f 356 420 419
f 356 421 420
f 356 422 421
f 356 423 422
f 356 424 423
f 356 367 424
f 367 425 424
f 367 426 425
f 367 427 426
f 367 428 427
f 367 429 428
f 367 430 429
f 367 431 430
f 367 432 431
f 367 433 432
f 367 370 433
f 367 369 370
f 367 368 369
f 356 366 367
f 356 365 366
f 356 364 365
f 356 363 364
f 356 362 363
f 356 361 362
f 356 360 361
f 356 359 360
f 356 358 359
f 356 357 358
f 376 377 356
f 377 378 356
f 378 379 356
f 379 380 356
f 380 381 356
f 381 382 356
f 382 383 356
f 383 384 356
f 384 385 356
f 385 386 356
f 386 26 356
f 2 10 1
f 1 10 9
f 2 29 53
f 2 53 10
f 29 30 54
f 29 54 53
f 30 31 55
f 30 55 54
f 31 32 56
f 31 56 55
f 32 33 57
f 32 57 56
f 33 34 58
f 33 58 57
f 34 3 11
f 34 11 58
f 12 11 4
f 11 3 4
f 4 35 59
f 4 59 12
f 35 36 60
f 35 60 59
f 36 37 61
f 36 61 60
f 37 38 62
f 37 62 61
f 38 39 63
f 38 63 62
f 39 40 64
f 39 64 63
f 40 5 13
f 40 13 64
f 14 13 6
f 13 5 6
f 6 41 65
f 6 65 14
f 41 42 66
f 41 66 65
f 42 43 67
f 42 67 66
f 43 44 68
f 43 68 67
f 44 45 69
f 44 69 68
f 45 46 70
f 45 70 69
f 46 7 15
f 46 15 70
f 8 16 7
f 7 16 15
f 8 47 71
f 8 71 16
f 47 48 72
f 47 72 71
f 48 49 73
f 48 73 72
f 49 50 74
f 49 74 73
f 50 51 75
f 50 75 74
f 51 52 76
f 51 76 75
f 52 1 9
f 52 9 76
f 18 108 77
f 18 77 17
f 108 109 78
f 108 78 77
f 109 110 79
f 109 79 78
f 110 111 80
f 110 80 79
f 111 112 81
f 111 81 80
f 112 113 82
f 112 82 81
f 113 114 83
f 113 83 82
f 114 115 84
f 114 84 83
f 115 116 85
f 115 85 84
f 116 117 86
f 116 86 85
f 117 118 87
f 117 87 86
f 118 119 88
f 118 88 87
f 119 120 89
f 119 89 88
f 120 121 90
f 120 90 89
f 121 122 91
f 121 91 90
f 122 123 92
f 122 92 91
f 123 124 93
f 123 93 92
f 124 125 94
f 124 94 93
f 125 126 95
f 125 95 94
f 126 127 96
f 126 96 95
f 127 128 97
f 127 97 96
f 128 129 98
f 128 98 97
f 129 130 99
f 129 99 98
f 130 131 100
f 130 100 99
f 131 132 101
f 131 101 100
f 132 133 102
f 132 102 101
f 133 134 103
f 133 103 102
f 134 135 104
f 134 104 103
f 135 136 105
f 135 105 104
f 136 137 106
f 136 106 105
f 137 138 107
f 137 107 106
f 138 18 17
f 138 17 107
f 20 170 139
f 20 139 19
f 170 171 140
f 170 140 139
f 171 172 141
f 171 141 140
f 172 173 142
f 172 142 141
f 173 174 143
f 173 143 142
f 174 175 144
f 174 144 143
f 175 176 145
f 175 145 144
f 176 177 146
f 176 146 145
f 177 178 147
f 177 147 146
f 178 179 148
f 178 148 147
f 179 180 149
f 179 149 148
f 180 181 150
f 180 150 149
f 181 182 151
f 181 151 150
f 182 183 152
f 182 152 151
f 183 184 153
f 183 153 152
f 184 185 154
f 184 154 153
f 185 186 155
f 185 155 154
f 186 187 156
f 186 156 155
f 187 188 157
f 187 157 156
f 188 189 158
f 188 158 157
f 189 190 159
f 189 159 158
f 190 191 160
f 190 160 159
f 191 192 161
f 191 161 160
f 192 193 162
f 192 162 161
f 193 194 163
f 193 163 162
f 194 195 164
f 194 164 163
f 195 196 165
f 195 165 164
f 196 197 166
f 196 166 165
f 197 198 167
f 197 167 166
f 198 199 168
f 198 168 167
f 199 200 169
f 199 169 168
f 200 20 19
f 200 19 169
f 22 232 201
f 22 201 21
f 232 233 202
f 232 202 201
f 233 234 203
f 233 203 202
f 234 235 204
f 234 204 203
f 235 236 205
f 235 205 204
f 236 237 206
f 236 206 205
f 237 238 207
f 237 207 206
f 238 239 208
f 238 208 207
f 239 240 209
f 239 209 208
f 240 241 210
f 240 210 209
f 241 242 211
f 241 211 210
f 242 243 212
f 242 212 211
f 243 244 213
f 243 213 212
f 244 245 214
f 244 214 213
f 245 246 215
f 245 215 214
f 246 247 216
f 246 216 215
f 247 248 217
f 247 217 216
f 248 249 218
f 248 218 217
f 249 250 219
f 249 219 218
f 250 251 220
f 250 220 219
f 251 252 221
f 251 221 220
f 252 253 222
f 252 222 221
f 253 254 223
f 253 223 222
f 254 255 224
f 254 224 223
f 255 256 225
f 255 225 224
f 256 257 226
f 256 226 225
f 257 258 227
f 257 227 226
f 258 259 228
f 258 228 227
f 259 260 229
f 259 229 228
f 260 261 230
f 260 230 229
f 261 262 231
f 261 231 230
f 262 22 21
f 262 21 231
f 24 294 263
f 24 263 23
f 294 295 264
f 294 264 263
f 295 296 265
f 295 265 264
f 296 297 266
f 296 266 265
f 297 298 267
f 297 267 266
f 298 299 268
f 298 268 267
f 299 300 269
f 299 269 268
f 300 301 270
f 300 270 269
f 301 302 271
f 301 271 270
f 302 303 272
f 302 272 271
f 303 304 273
f 303 273 272
f 304 305 274
f 304 274 273
f 305 306 275
f 305 275 274
f 306 307 276
f 306 276 275
f 307 308 277
f 307 277 276
f 308 309 278
f 308 278 277
f 309 310 279
f 309 279 278
f 310 311 280
f 310 280 279
f 311 312 281
f 311 281 280
f 312 313 282
f 312 282 281
f 313 314 283
f 313 283 282
f 314 315 284
f 314 284 283
f 315 316 285
f 315 285 284
f 316 317 286
f 316 286 285
f 317 318 287
f 317 287 286
f 318 319 288
f 318 288 287
f 319 320 289
f 319 289 288
f 320 321 290
f 320 290 289
f 321 322 291
f 321 291 290
f 322 323 292
f 322 292 291
f 323 324 293
f 323 293 292
f 324 24 23
f 324 23 293
f 25 325 356
f 25 356 26
f 325 326 357
f 325 357 356
f 326 327 358
f 326 358 357
f 327 328 359
f 327 359 358
f 328 329 360
f 328 360 359
f 329 330 361
f 329 361 360
f 330 331 362
f 330 362 361
f 331 332 363
f 331 363 362
f 332 333 364
f 332 364 363
f 333 334 365
f 333 365 364
f 334 335 366
f 334 366 365
f 335 336 367
f 335 367 366
f 336 337 368
f 336 368 367
f 337 338 369
f 337 369 368
f 338 339 370
f 338 370 369
f 339 340 371
f 339 371 370
f 340 341 372
f 340 372 371
f 341 342 373
f 341 373 372
f 342 343 374
f 342 374 373
f 343 344 375
f 343 375 374
f 344 345 376
f 344 376 375
f 345 346 377
f 345 377 376
f 346 347 378
f 346 378 377
f 347 348 379
f 347 379 378
f 348 349 380
f 348 380 379
f 349 350 381
f 349 381 380
f 350 351 382
f 350 382 381
f 351 352 383
f 351 383 382
f 352 353 384
f 352 384 383
f 353 354 385
f 353 385 384
f 354 355 386
f 354 386 385
f 355 25 26
f 355 26 386
f 28 418 387
f 28 387 27
f 418 419 388
f 418 388 387
f 419 420 389
f 419 389 388
f 420 421 390
f 420 390 389
f 421 422 391
f 421 391 390
f 422 423 392
f 422 392 391
f 423 424 393
f 423 393 392
f 424 425 394
f 424 394 393
f 425 426 395
f 425 395 394
f 426 427 396
f 426 396 395
f 427 428 397
f 427 397 396
f 428 429 398
f 428 398 397
f 429 430 399
f 429 399 398
f 430 431 400
f 430 400 399
f 431 432 401
f 431 401 400
f 432 433 402
f 432 402 401
f 433 434 403
f 433 403 402
f 434 435 404
f 434 404 403
f 435 436 405
f 435 405 404
f 436 437 406
f 436 406 405
f 437 438 407
f 437 407 406
f 438 439 408
f 438 408 407
f 439 440 409
f 439 409 408
f 440 441 410
f 440 410 409
f 441 442 411
f 441 411 410
f 442 443 412
f 442 412 411
f 443 444 413
f 443 413 412
f 444 445 414
f 444 414 413
f 445 446 415
f 445 415 414
f 446 447 416
f 446 416 415
f 447 448 417
f 447 417 416
f 448 28 27
f 448 27 417
