v 15 0 0
v 135 0 0
v 150 15 0
v 135 30 0
v 15 30 0
v 0 15 0
v 15 0 10
v 135 0 10
v 150 15 10
v 135 30 10
v 15 30 10
v 0 15 10
v 9 15 0
v 9 15 10
v 129 15 0
v 129 15 10
v 55 8 6
v 95 8 6
v 95 22 6
v 55 22 6
v 55 8 10
v 95 8 10
v 95 22 10
v 55 22 10
v 138.12802771171073 0.32977700800803494 0
v 141.3078016519487 1.3907517356882104 0
v 144.281706408411 3.216540145268801 0
v 146.7834598547312 5.71829359158898 0
v 148.6092482643118 8.692198348051315 0
v 149.67022299199195 11.87197228828926 0
v 149.67022299199195 18.128027711710736 0
v 148.6092482643118 21.307801651948687 0
v 146.78345985473118 24.281706408411022 0
v 144.28170640841105 26.783459854731202 0
v 141.3078016519487 28.60924826431179 0
v 138.12802771171076 29.670222991991963 0
v 11.871972288289262 29.670222991991967 0
v 8.692198348051315 28.60924826431179 0
v 5.71829359158898 26.783459854731195 0
v 3.216540145268802 24.281706408411026 0
v 1.3907517356882104 21.307801651948683 0
v 0.3297770080080352 18.12802771171074 0
v 0.32977700800803494 11.871972288289262 0
v 1.3907517356882104 8.692198348051315 0
v 3.216540145268801 5.71829359158898 0
v 5.71829359158898 3.216540145268802 0
v 8.692198348051315 1.3907517356882104 0
v 11.87197228828926 0.3297770080080352 0
v 138.12802771171073 0.32977700800803494 9.999999999999998
v 141.3078016519487 1.3907517356882104 10
v 144.281706408411 3.216540145268801 10.000000000000002
v 146.7834598547312 5.71829359158898 10.000000000000002
v 148.6092482643118 8.692198348051315 10
v 149.67022299199195 11.87197228828926 10
v 149.67022299199195 18.128027711710736 9.999999999999998
v 148.6092482643118 21.307801651948687 10
v 146.78345985473118 24.281706408411022 10.000000000000002
v 144.28170640841105 26.783459854731202 10.000000000000002
v 141.3078016519487 28.60924826431179 10
v 138.12802771171076 29.670222991991963 10
v 11.871972288289262 29.670222991991967 9.999999999999998
v 8.692198348051315 28.60924826431179 10
v 5.71829359158898 26.783459854731195 10.000000000000002
v 3.216540145268802 24.281706408411026 10.000000000000002
v 1.3907517356882104 21.307801651948683 10
v 0.3297770080080352 18.12802771171074 10
v 0.32977700800803494 11.871972288289262 9.999999999999998
v 1.3907517356882104 8.692198348051315 10
v 3.216540145268801 5.71829359158898 10.000000000000002
v 5.71829359158898 3.216540145268802 10.000000000000002
v 8.692198348051315 1.3907517356882104 10
v 11.87197228828926 0.3297770080080352 10
v 9.049844182900316 14.22821910347898 0
v 9.211449604510925 13.421176286318428 0
v 9.502853979238754 12.595548788927335 0
v 9.9408 11.7744 0
v 10.53874297293304 10.987870174278296 0
v 11.304254513319027 10.273324075243025 0
v 12.235918252339987 9.674603104720479 0
v 13.32 9.24 0
v 14.527417360924483 9.018640150497179 0
v 15.811784574967161 9.055169825483205 0
v 17.10947176454199 9.383049860057497 0
v 18.34256055363322 10.017301038062284 0
v 19.425176219295125 10.94810964756141 0
v 20.272899408284026 12.137041420118344 0
v 20.813956305167377 13.517464306802525 0
v 21 15 0
v 20.813956305167377 16.482535693197473 0
v 20.272899408284026 17.862958579881656 0
v 19.425176219295125 19.05189035243859 0
v 18.34256055363322 19.982698961937714 0
v 17.10947176454199 20.616950139942503 0
v 15.811784574967161 20.944830174516795 0
v 14.527417360924483 20.981359849502823 0
v 13.32 20.759999999999998 0
v 12.235918252339987 20.32539689527952 0
v 11.304254513319027 19.726675924756975 0
v 10.53874297293304 19.012129825721704 0
v 9.9408 18.2256 0
v 9.502853979238754 17.404451211072665 0
v 9.211449604510925 16.578823713681572 0
v 9.049844182900316 15.77178089652102 0
v 9.049844182900316 14.22821910347898 10
v 9.211449604510925 13.421176286318428 10
v 9.502853979238754 12.595548788927335 10
v 9.9408 11.7744 10
v 10.53874297293304 10.987870174278296 10
v 11.304254513319027 10.273324075243025 10
v 12.235918252339987 9.674603104720479 10
v 13.32 9.24 10
v 14.527417360924483 9.018640150497179 10
v 15.811784574967161 9.055169825483205 10
v 17.10947176454199 9.383049860057497 10
v 18.34256055363322 10.017301038062284 10
v 19.425176219295125 10.94810964756141 10
v 20.272899408284026 12.137041420118344 10
v 20.813956305167377 13.517464306802525 10
v 21 15 10
v 20.813956305167377 16.482535693197473 10
v 20.272899408284026 17.862958579881656 10
v 19.425176219295125 19.05189035243859 10
v 18.34256055363322 19.982698961937714 10
v 17.10947176454199 20.616950139942503 10
v 15.811784574967161 20.944830174516795 10
v 14.527417360924483 20.981359849502823 10
v 13.32 20.759999999999998 10
v 12.235918252339987 20.32539689527952 10
v 11.304254513319027 19.726675924756975 10
v 10.53874297293304 19.012129825721704 10
v 9.9408 18.2256 10
v 9.502853979238754 17.404451211072665 10
v 9.211449604510925 16.578823713681572 10
v 9.049844182900316 15.77178089652102 10
v 129.04984418290033 14.22821910347898 0
v 129.21144960451093 13.421176286318428 0
v 129.50285397923875 12.595548788927335 0
v 129.9408 11.7744 0
v 130.53874297293305 10.987870174278296 0
v 131.30425451331902 10.273324075243025 0
v 132.23591825233999 9.674603104720479 0
v 133.32 9.24 0
v 134.5274173609245 9.018640150497179 0
v 135.81178457496716 9.055169825483205 0
v 137.10947176454198 9.383049860057497 0
v 138.3425605536332 10.017301038062284 0
v 139.4251762192951 10.94810964756141 0
v 140.27289940828402 12.137041420118344 0
v 140.81395630516738 13.517464306802525 0
v 141 15 0
v 140.81395630516738 16.482535693197473 0
v 140.27289940828402 17.862958579881656 0
v 139.4251762192951 19.05189035243859 0
v 138.3425605536332 19.982698961937714 0
v 137.10947176454198 20.616950139942503 0
v 135.81178457496716 20.944830174516795 0
v 134.5274173609245 20.981359849502823 0
v 133.32 20.759999999999998 0
v 132.23591825233999 20.32539689527952 0
v 131.30425451331902 19.726675924756975 0
v 130.53874297293305 19.012129825721704 0
v 129.9408 18.2256 0
v 129.50285397923875 17.404451211072665 0
v 129.21144960451093 16.578823713681572 0
v 129.04984418290033 15.77178089652102 0
v 129.04984418290033 14.22821910347898 10
v 129.21144960451093 13.421176286318428 10
v 129.50285397923875 12.595548788927335 10
v 129.9408 11.7744 10
v 130.53874297293305 10.987870174278296 10
v 131.30425451331902 10.273324075243025 10
v 132.23591825233999 9.674603104720479 10
v 133.32 9.24 10
v 134.5274173609245 9.018640150497179 10
v 135.81178457496716 9.055169825483205 10
v 137.10947176454198 9.383049860057497 10
v 138.3425605536332 10.017301038062284 10
v 139.4251762192951 10.94810964756141 10
v 140.27289940828402 12.137041420118344 10
v 140.81395630516738 13.517464306802525 10
v 141 15 10
v 140.81395630516738 16.482535693197473 10
v 140.27289940828402 17.862958579881656 10
v 139.4251762192951 19.05189035243859 10
v 138.3425605536332 19.982698961937714 10
v 137.10947176454198 20.616950139942503 10
v 135.81178457496716 20.944830174516795 10
v 134.5274173609245 20.981359849502823 10
v 133.32 20.759999999999998 10
v 132.23591825233999 20.32539689527952 10
v 131.30425451331902 19.726675924756975 10
v 130.53874297293305 19.012129825721704 10
v 129.9408 18.2256 10
v 129.50285397923875 17.404451211072665 10
v 129.21144960451093 16.578823713681572 10
v 129.04984418290033 15.77178089652102 10
f 119 21 120
f 21 121 120
f 21 122 121
f 21 24 122
f 24 10 122
f 24 23 10
f 23 194 10
f 23 195 194
f 23 196 195
f 10 123 122
f 10 124 123
f 10 125 124
f 10 126 125
f 10 65 126
f 65 127 126
f 65 128 127
f 65 129 128
f 65 130 129
f 65 131 130
f 65 132 131
f 65 133 132
f 65 134 133
f 65 14 134
f 65 104 14
f 65 105 104
f 65 106 105
f 65 107 106
f 65 108 107
f 65 68 108
f 68 109 108
f 68 110 109
f 68 111 110
f 68 112 111
f 68 21 112
f 68 52 21
f 52 22 21
f 52 173 22
f 173 23 22
f 173 172 23
f 172 171 23
f 171 170 23
f 170 169 23
f 169 168 23
f 168 167 23
f 167 166 23
f 166 16 23
f 16 196 23
f 21 113 112
f 21 114 113
f 21 115 114
f 21 116 115
f 21 117 116
f 21 118 117
f 21 119 118
f 65 67 68
f 65 12 67
f 65 66 12
f 10 64 65
f 10 63 64
f 10 62 63
f 10 61 62
f 10 11 61
f 194 193 10
f 193 60 10
f 193 192 60
f 192 191 60
f 191 59 60
f 191 190 59
f 190 58 59
f 190 189 58
f 189 57 58
f 189 188 57
f 188 56 57
f 188 187 56
f 187 186 56
f 186 185 56
f 185 184 56
f 184 183 56
f 183 182 56
f 182 181 56
f 181 9 56
f 9 55 56
f 52 174 173
f 52 175 174
f 52 176 175
f 52 177 176
f 52 178 177
f 52 179 178
f 52 180 179
f 52 181 180
f 52 9 181
f 52 54 9
f 52 53 54
f 68 51 52
f 68 50 51
f 68 49 50
f 68 8 49
f 68 69 8
f 69 70 8
f 70 71 8
f 71 72 8
f 72 7 8
f 88 89 15
f 15 89 90
f 15 90 91
f 15 91 92
f 15 92 93
f 15 93 94
f 15 94 40
f 40 94 95
f 40 95 96
f 40 96 97
f 40 97 98
f 40 98 99
f 40 99 100
f 40 100 101
f 40 101 102
f 40 102 103
f 40 103 13
f 40 13 73
f 40 73 74
f 40 74 75
f 40 75 76
f 40 76 44
f 44 76 77
f 44 77 78
f 44 78 79
f 44 79 80
f 44 80 81
f 44 81 138
f 138 81 82
f 138 82 83
f 138 83 84
f 138 84 85
f 138 85 86
f 138 86 87
f 138 87 137
f 137 87 136
f 136 87 135
f 135 87 15
f 15 87 88
f 40 44 43
f 40 43 6
f 40 6 42
f 40 42 41
f 15 40 39
f 15 39 38
f 15 38 37
f 15 37 5
f 15 5 165
f 165 5 164
f 164 5 163
f 163 5 4
f 163 4 162
f 162 4 36
f 162 36 161
f 161 36 160
f 160 36 35
f 160 35 159
f 159 35 34
f 159 34 158
f 158 34 33
f 158 33 157
f 157 33 32
f 157 32 156
f 156 32 155
f 155 32 154
f 154 32 153
f 153 32 152
f 152 32 151
f 151 32 150
f 150 32 3
f 3 32 31
f 44 138 139
f 44 139 140
f 44 140 141
f 44 141 142
f 44 142 143
f 44 143 29
f 29 143 144
f 29 144 145
f 29 145 146
f 29 146 147
f 29 147 148
f 29 148 149
f 29 149 150
f 29 150 3
f 29 3 30
f 44 29 28
f 44 28 27
f 44 27 26
f 44 26 25
f 44 25 45
f 45 25 46
f 46 25 47
f 47 25 48
f 48 25 1
f 1 25 2
f 19 20 18
f 20 17 18
f 2 8 1
f 1 8 7
f 2 25 49
f 2 49 8
f 25 26 50
f 25 50 49
f 26 27 51
f 26 51 50
f 27 28 52
f 27 52 51
f 28 29 53
f 28 53 52
f 29 30 54
f 29 54 53
f 30 3 9
f 30 9 54
f 3 31 55
f 3 55 9
f 31 32 56
f 31 56 55
f 32 33 57
f 32 57 56
f 33 34 58
f 33 58 57
f 34 35 59
f 34 59 58
f 35 36 60
f 35 60 59
f 36 4 10
f 36 10 60
f 11 10 5
f 10 4 5
f 5 37 61
f 5 61 11
f 37 38 62
f 37 62 61
f 38 39 63
f 38 63 62
f 39 40 64
f 39 64 63
f 40 41 65
f 40 65 64
f 41 42 66
f 41 66 65
f 42 6 12
f 42 12 66
f 6 43 67
f 6 67 12
f 43 44 68
f 43 68 67
f 44 45 69
f 44 69 68
f 45 46 70
f 45 70 69
f 46 47 71
f 46 71 70
f 47 48 72
f 47 72 71
f 48 1 7
f 48 7 72
f 14 104 73
f 14 73 13
f 104 105 74
f 104 74 73
f 105 106 75
f 105 75 74
f 106 107 76
f 106 76 75
f 107 108 77
f 107 77 76
f 108 109 78
f 108 78 77
f 109 110 79
f 109 79 78
f 110 111 80
f 110 80 79
f 111 112 81
f 111 81 80
f 112 113 82
f 112 82 81
f 113 114 83
f 113 83 82
f 114 115 84
f 114 84 83
f 115 116 85
f 115 85 84
f 116 117 86
f 116 86 85
f 117 118 87
f 117 87 86
f 118 119 88
f 118 88 87
f 119 120 89
f 119 89 88
f 120 121 90
f 120 90 89
f 121 122 91
f 121 91 90
f 122 123 92
f 122 92 91
f 123 124 93
f 123 93 92
f 124 125 94
f 124 94 93
f 125 126 95
f 125 95 94
f 126 127 96
f 126 96 95
f 127 128 97
f 127 97 96
f 128 129 98
f 128 98 97
f 129 130 99
f 129 99 98
f 130 131 100
f 130 100 99
f 131 132 101
f 131 101 100
f 132 133 102
f 132 102 101
f 133 134 103
f 133 103 102
f 134 14 13
f 134 13 103
f 16 166 135
f 16 135 15
f 166 167 136
f 166 136 135
f 167 168 137
f 167 137 136
f 168 169 138
f 168 138 137
f 169 170 139
f 169 139 138
f 170 171 140
f 170 140 139
f 171 172 141
f 171 141 140
f 172 173 142
f 172 142 141
f 173 174 143
f 173 143 142
f 174 175 144
f 174 144 143
f 175 176 145
f 175 145 144
f 176 177 146
f 176 146 145
f 177 178 147
f 177 147 146
f 178 179 148
f 178 148 147
f 179 180 149
f 179 149 148
f 180 181 150
f 180 150 149
f 181 182 151
f 181 151 150
f 182 183 152
f 182 152 151
f 183 184 153
f 183 153 152
f 184 185 154
f 184 154 153
f 185 186 155
f 185 155 154
f 186 187 156
f 186 156 155
f 187 188 157
f 187 157 156
f 188 189 158
f 188 158 157
f 189 190 159
f 189 159 158
f 190 191 160
f 190 160 159
f 191 192 161
f 191 161 160
f 192 193 162
f 192 162 161
f 193 194 163
f 193 163 162
f 194 195 164
f 194 164 163
f 195 196 165
f 195 165 164
f 196 16 15
f 196 15 165
f 22 18 21
f 18 17 21
f 22 23 18
f 18 23 19
f 23 24 19
f 19 24 20
f 21 17 24
f 17 20 24
